<mxfile host="app.diagrams.net" modified="2021-12-10T07:16:35.886Z" agent="5.0 (Windows NT 10.0; Win64; x64) AppleWebKit/537.36 (KHTML, like Gecko) Chrome/96.0.4664.45 Safari/537.36" etag="Gl8aT0knXroVzbehPp5t" version="15.9.4" type="github">
  <diagram id="yPxyJZ8AM_hMuL3Unpa9" name="complex gitflow">
    <mxGraphModel dx="2522" dy="1612" grid="1" gridSize="10" guides="1" tooltips="1" connect="1" arrows="1" fold="1" page="1" pageScale="1" pageWidth="1100" pageHeight="850" math="0" shadow="0">
      <root>
        <mxCell id="0" />
        <mxCell id="1" parent="0" />
        <mxCell id="VTCUIz3zF3hYeyJHzAD7-49" value="" style="rounded=0;whiteSpace=wrap;html=1;fontSize=25;shadow=0;fillColor=#f5f5f5;fontColor=#333333;strokeColor=none;" vertex="1" parent="1">
          <mxGeometry x="-157.75" y="242" width="1280" height="400" as="geometry" />
        </mxCell>
        <mxCell id="VTCUIz3zF3hYeyJHzAD7-61" value="" style="rounded=0;whiteSpace=wrap;html=1;shadow=0;fontSize=18;fontColor=#333333;fillColor=#F5F5F5;strokeColor=none;" vertex="1" parent="1">
          <mxGeometry x="-160" y="40" width="1280" height="110" as="geometry" />
        </mxCell>
        <mxCell id="VTCUIz3zF3hYeyJHzAD7-56" value="" style="rounded=0;whiteSpace=wrap;html=1;shadow=0;fontSize=18;fontColor=#333333;fillColor=#F7F7F7;strokeColor=none;dashed=1;" vertex="1" parent="1">
          <mxGeometry x="-160" y="-120" width="1280" height="120" as="geometry" />
        </mxCell>
        <mxCell id="uWUnNED6HEl2aK5fdaIb-13" value="master" style="text;html=1;align=center;verticalAlign=middle;whiteSpace=wrap;overflow=hidden;fontSize=14;fontStyle=1;fontFamily=Courier New;" parent="1" vertex="1">
          <mxGeometry x="-57.75" y="180" width="230" height="42" as="geometry" />
        </mxCell>
        <mxCell id="uWUnNED6HEl2aK5fdaIb-95" value="" style="verticalLabelPosition=bottom;verticalAlign=top;html=1;strokeWidth=4;shape=mxgraph.flowchart.on-page_reference;strokeColor=#d6b656;fillColor=#fff2cc;" parent="1" vertex="1">
          <mxGeometry x="720" y="361" width="30" height="30" as="geometry" />
        </mxCell>
        <mxCell id="uWUnNED6HEl2aK5fdaIb-81" value="" style="edgeStyle=orthogonalEdgeStyle;rounded=0;orthogonalLoop=1;jettySize=auto;html=1;endArrow=none;endFill=0;strokeWidth=1;fillColor=#d5e8d4;strokeColor=#82b366;" parent="1" source="uWUnNED6HEl2aK5fdaIb-82" target="uWUnNED6HEl2aK5fdaIb-84" edge="1">
          <mxGeometry relative="1" as="geometry" />
        </mxCell>
        <mxCell id="uWUnNED6HEl2aK5fdaIb-82" value="" style="verticalLabelPosition=bottom;verticalAlign=top;html=1;strokeWidth=4;shape=mxgraph.flowchart.on-page_reference;strokeColor=#82b366;fillColor=#d5e8d4;" parent="1" vertex="1">
          <mxGeometry x="320" y="440" width="30" height="30" as="geometry" />
        </mxCell>
        <mxCell id="uWUnNED6HEl2aK5fdaIb-84" value="" style="verticalLabelPosition=bottom;verticalAlign=top;html=1;strokeWidth=4;shape=mxgraph.flowchart.on-page_reference;strokeColor=#82b366;fillColor=#d5e8d4;" parent="1" vertex="1">
          <mxGeometry x="410" y="440" width="30" height="30" as="geometry" />
        </mxCell>
        <mxCell id="uWUnNED6HEl2aK5fdaIb-106" value="" style="verticalLabelPosition=bottom;verticalAlign=top;html=1;strokeWidth=4;shape=mxgraph.flowchart.on-page_reference;strokeColor=#005700;fillColor=#008a00;fontColor=#ffffff;" parent="1" vertex="1">
          <mxGeometry x="900" y="290" width="30" height="30" as="geometry" />
        </mxCell>
        <UserObject label="Git-Flow" link="https://nvie.com/posts/a-successful-git-branching-model/" id="9hBKPDzoitwpIBdzFDQ7-2">
          <mxCell style="text;whiteSpace=wrap;html=1;fontStyle=1;fontSize=25;" parent="1" vertex="1">
            <mxGeometry x="-167.75" y="-300" width="117.75" height="50" as="geometry" />
          </mxCell>
        </UserObject>
        <mxCell id="VTCUIz3zF3hYeyJHzAD7-7" value="" style="verticalLabelPosition=bottom;verticalAlign=top;html=1;strokeWidth=4;shape=mxgraph.flowchart.on-page_reference;strokeColor=#82b366;fillColor=#d5e8d4;" vertex="1" parent="1">
          <mxGeometry x="440" y="530" width="30" height="30" as="geometry" />
        </mxCell>
        <mxCell id="VTCUIz3zF3hYeyJHzAD7-8" value="" style="verticalLabelPosition=bottom;verticalAlign=top;html=1;strokeWidth=4;shape=mxgraph.flowchart.on-page_reference;strokeColor=#82b366;fillColor=#d5e8d4;" vertex="1" parent="1">
          <mxGeometry x="380" y="530" width="30" height="30" as="geometry" />
        </mxCell>
        <mxCell id="VTCUIz3zF3hYeyJHzAD7-10" value="" style="endArrow=none;html=1;rounded=0;entryX=0;entryY=0.5;entryDx=0;entryDy=0;entryPerimeter=0;exitX=1;exitY=0.5;exitDx=0;exitDy=0;exitPerimeter=0;fillColor=#d5e8d4;strokeColor=#82b366;" edge="1" parent="1" source="VTCUIz3zF3hYeyJHzAD7-8" target="VTCUIz3zF3hYeyJHzAD7-7">
          <mxGeometry width="50" height="50" relative="1" as="geometry">
            <mxPoint x="430" y="580" as="sourcePoint" />
            <mxPoint x="480" y="530" as="targetPoint" />
          </mxGeometry>
        </mxCell>
        <mxCell id="VTCUIz3zF3hYeyJHzAD7-17" value="" style="endArrow=none;dashed=1;html=1;fillColor=#008a00;strokeColor=#005700;entryX=0.5;entryY=1;entryDx=0;entryDy=0;endFill=0;exitX=0;exitY=0.5;exitDx=0;exitDy=0;exitPerimeter=0;entryPerimeter=0;" edge="1" parent="1" source="uWUnNED6HEl2aK5fdaIb-106" target="uWUnNED6HEl2aK5fdaIb-10">
          <mxGeometry width="50" height="50" relative="1" as="geometry">
            <mxPoint x="399.5" y="319" as="sourcePoint" />
            <mxPoint x="312.25" y="300" as="targetPoint" />
            <Array as="points">
              <mxPoint x="300" y="300" />
            </Array>
          </mxGeometry>
        </mxCell>
        <mxCell id="VTCUIz3zF3hYeyJHzAD7-23" value="group1-sprint1-test" style="text;html=1;strokeColor=none;fillColor=none;align=left;verticalAlign=middle;whiteSpace=wrap;overflow=hidden;fontSize=14;fontStyle=1;fontFamily=Courier New;" vertex="1" parent="1">
          <mxGeometry x="-80" y="361" width="200" height="20" as="geometry" />
        </mxCell>
        <mxCell id="VTCUIz3zF3hYeyJHzAD7-24" value="测试" style="text;html=1;strokeColor=#d79b00;fillColor=#ffe6cc;align=left;verticalAlign=middle;whiteSpace=wrap;overflow=hidden;fontSize=14;fontStyle=0;" vertex="1" parent="1">
          <mxGeometry x="-77.75" y="381" width="117.75" height="20" as="geometry" />
        </mxCell>
        <mxCell id="VTCUIz3zF3hYeyJHzAD7-25" value="" style="endArrow=classic;html=1;strokeWidth=4;fontFamily=Courier New;fontColor=#009900;fillColor=#fff2cc;strokeColor=#d6b656;" edge="1" parent="1">
          <mxGeometry width="50" height="50" relative="1" as="geometry">
            <mxPoint x="120" y="375.5" as="sourcePoint" />
            <mxPoint x="173.25" y="375.5" as="targetPoint" />
          </mxGeometry>
        </mxCell>
        <mxCell id="VTCUIz3zF3hYeyJHzAD7-27" value="group1-JIRA1-feature" style="text;html=1;strokeColor=none;fillColor=none;align=left;verticalAlign=middle;whiteSpace=wrap;overflow=hidden;fontSize=14;fontStyle=1;fontFamily=Courier New;" vertex="1" parent="1">
          <mxGeometry x="-80" y="440" width="200" height="20" as="geometry" />
        </mxCell>
        <mxCell id="VTCUIz3zF3hYeyJHzAD7-28" value="功能开发1" style="text;html=1;strokeColor=#82b366;fillColor=#d5e8d4;align=left;verticalAlign=middle;whiteSpace=wrap;overflow=hidden;fontSize=14;fontStyle=0;" vertex="1" parent="1">
          <mxGeometry x="-77.75" y="460" width="117.75" height="20" as="geometry" />
        </mxCell>
        <mxCell id="VTCUIz3zF3hYeyJHzAD7-29" value="" style="endArrow=classic;html=1;strokeWidth=4;fontFamily=Courier New;fontColor=#009900;fillColor=#d5e8d4;strokeColor=#82b366;" edge="1" parent="1">
          <mxGeometry width="50" height="50" relative="1" as="geometry">
            <mxPoint x="120" y="460" as="sourcePoint" />
            <mxPoint x="173.25" y="460" as="targetPoint" />
          </mxGeometry>
        </mxCell>
        <mxCell id="VTCUIz3zF3hYeyJHzAD7-31" value="group1-JIRA2-feature" style="text;html=1;strokeColor=none;fillColor=none;align=left;verticalAlign=middle;whiteSpace=wrap;overflow=hidden;fontSize=14;fontStyle=1;fontFamily=Courier New;" vertex="1" parent="1">
          <mxGeometry x="-80" y="520" width="190" height="20" as="geometry" />
        </mxCell>
        <mxCell id="VTCUIz3zF3hYeyJHzAD7-32" value="功能开发2" style="text;html=1;strokeColor=#82b366;fillColor=#d5e8d4;align=left;verticalAlign=middle;whiteSpace=wrap;overflow=hidden;fontSize=14;fontStyle=0;" vertex="1" parent="1">
          <mxGeometry x="-77.75" y="540" width="117.75" height="20" as="geometry" />
        </mxCell>
        <mxCell id="VTCUIz3zF3hYeyJHzAD7-33" value="" style="endArrow=classic;html=1;strokeWidth=4;fontFamily=Courier New;fontColor=#009900;fillColor=#d5e8d4;strokeColor=#82b366;" edge="1" parent="1">
          <mxGeometry width="50" height="50" relative="1" as="geometry">
            <mxPoint x="120" y="540" as="sourcePoint" />
            <mxPoint x="173.25" y="540" as="targetPoint" />
          </mxGeometry>
        </mxCell>
        <mxCell id="uWUnNED6HEl2aK5fdaIb-20" value="group1-sprint1-release" style="text;html=1;strokeColor=none;fillColor=none;align=left;verticalAlign=middle;whiteSpace=wrap;overflow=hidden;fontSize=14;fontStyle=1;fontFamily=Courier New;" parent="1" vertex="1">
          <mxGeometry x="-80" y="281" width="200" height="20" as="geometry" />
        </mxCell>
        <mxCell id="uWUnNED6HEl2aK5fdaIb-89" value="预发布" style="text;html=1;strokeColor=#005700;fillColor=#008a00;align=left;verticalAlign=middle;whiteSpace=wrap;overflow=hidden;fontSize=14;fontStyle=0;fontColor=#ffffff;" parent="1" vertex="1">
          <mxGeometry x="-77.75" y="301" width="117.75" height="20" as="geometry" />
        </mxCell>
        <mxCell id="uWUnNED6HEl2aK5fdaIb-93" value="" style="endArrow=classic;html=1;strokeWidth=4;fontFamily=Courier New;fontColor=#009900;fillColor=#008a00;strokeColor=#005700;" parent="1" edge="1">
          <mxGeometry width="50" height="50" relative="1" as="geometry">
            <mxPoint x="120" y="290.5" as="sourcePoint" />
            <mxPoint x="173.25" y="290.5" as="targetPoint" />
          </mxGeometry>
        </mxCell>
        <mxCell id="VTCUIz3zF3hYeyJHzAD7-50" value="" style="group" vertex="1" connectable="0" parent="1">
          <mxGeometry x="172.25" y="100" width="772.25" height="146" as="geometry" />
        </mxCell>
        <mxCell id="uWUnNED6HEl2aK5fdaIb-10" value="" style="verticalLabelPosition=bottom;verticalAlign=top;html=1;strokeWidth=4;shape=mxgraph.flowchart.on-page_reference;plain-blue;gradientColor=none;fillColor=#B5E3Fe;strokeColor=#000000;" parent="VTCUIz3zF3hYeyJHzAD7-50" vertex="1">
          <mxGeometry x="112.25" y="86" width="30" height="30" as="geometry" />
        </mxCell>
        <mxCell id="uWUnNED6HEl2aK5fdaIb-11" value="" style="verticalLabelPosition=bottom;verticalAlign=top;html=1;strokeWidth=4;shape=mxgraph.flowchart.on-page_reference;plain-blue;gradientColor=none;strokeColor=#000000;fillColor=#B5E3FE;" parent="VTCUIz3zF3hYeyJHzAD7-50" vertex="1">
          <mxGeometry x="472.25" y="86" width="30" height="30" as="geometry" />
        </mxCell>
        <mxCell id="uWUnNED6HEl2aK5fdaIb-12" value="" style="edgeStyle=orthogonalEdgeStyle;rounded=0;html=1;jettySize=auto;orthogonalLoop=1;strokeWidth=4;endArrow=none;endFill=0;" parent="VTCUIz3zF3hYeyJHzAD7-50" target="uWUnNED6HEl2aK5fdaIb-10" edge="1">
          <mxGeometry x="42.25" y="101" as="geometry">
            <mxPoint y="101" as="sourcePoint" />
          </mxGeometry>
        </mxCell>
        <mxCell id="uWUnNED6HEl2aK5fdaIb-103" value="Tag: 1.0.0" style="text;html=1;strokeColor=#005700;fillColor=#008a00;align=center;verticalAlign=middle;whiteSpace=wrap;overflow=hidden;fontSize=14;fontColor=#ffffff;" parent="VTCUIz3zF3hYeyJHzAD7-50" vertex="1">
          <mxGeometry x="147.75" y="70" width="70" height="20" as="geometry" />
        </mxCell>
        <mxCell id="9hBKPDzoitwpIBdzFDQ7-21" value="" style="edgeStyle=orthogonalEdgeStyle;rounded=0;orthogonalLoop=1;jettySize=auto;html=1;fontSize=15;endArrow=none;endFill=0;strokeWidth=4;entryX=0;entryY=0.5;entryDx=0;entryDy=0;entryPerimeter=0;" parent="VTCUIz3zF3hYeyJHzAD7-50" source="9hBKPDzoitwpIBdzFDQ7-16" target="uWUnNED6HEl2aK5fdaIb-11" edge="1">
          <mxGeometry relative="1" as="geometry">
            <mxPoint x="410.25" y="101" as="targetPoint" />
          </mxGeometry>
        </mxCell>
        <mxCell id="9hBKPDzoitwpIBdzFDQ7-16" value="" style="verticalLabelPosition=bottom;verticalAlign=top;html=1;strokeWidth=4;shape=mxgraph.flowchart.on-page_reference;plain-blue;gradientColor=#EA6B66;strokeColor=#B85450;fillColor=#F8CECC;" parent="VTCUIz3zF3hYeyJHzAD7-50" vertex="1">
          <mxGeometry x="302.25" y="86" width="30" height="30" as="geometry" />
        </mxCell>
        <mxCell id="uWUnNED6HEl2aK5fdaIb-8" value="" style="edgeStyle=orthogonalEdgeStyle;rounded=0;html=1;jettySize=auto;orthogonalLoop=1;plain-blue;endArrow=none;endFill=0;strokeWidth=4;strokeColor=#000000;entryX=0;entryY=0.5;entryDx=0;entryDy=0;entryPerimeter=0;" parent="VTCUIz3zF3hYeyJHzAD7-50" source="uWUnNED6HEl2aK5fdaIb-10" target="9hBKPDzoitwpIBdzFDQ7-16" edge="1">
          <mxGeometry x="142.25" y="101" as="geometry">
            <mxPoint x="292.25" y="101" as="targetPoint" />
          </mxGeometry>
        </mxCell>
        <mxCell id="VTCUIz3zF3hYeyJHzAD7-14" value="" style="ellipse;whiteSpace=wrap;html=1;aspect=fixed;fillColor=#f8cecc;strokeColor=#b85450;" vertex="1" parent="VTCUIz3zF3hYeyJHzAD7-50">
          <mxGeometry x="210" width="20" height="20" as="geometry" />
        </mxCell>
        <mxCell id="VTCUIz3zF3hYeyJHzAD7-15" value="" style="endArrow=none;dashed=1;html=1;fillColor=#f8cecc;strokeColor=#b85450;entryX=0;entryY=0.5;entryDx=0;entryDy=0;endFill=0;exitX=0.5;exitY=0;exitDx=0;exitDy=0;exitPerimeter=0;" edge="1" parent="VTCUIz3zF3hYeyJHzAD7-50" source="uWUnNED6HEl2aK5fdaIb-10" target="VTCUIz3zF3hYeyJHzAD7-14">
          <mxGeometry width="50" height="50" relative="1" as="geometry">
            <mxPoint x="544" y="-10" as="sourcePoint" />
            <mxPoint x="569.9999999999836" y="-40" as="targetPoint" />
            <Array as="points">
              <mxPoint x="127.75" y="64" />
              <mxPoint x="169.75" y="64" />
              <mxPoint x="169.75" y="10" />
            </Array>
          </mxGeometry>
        </mxCell>
        <mxCell id="VTCUIz3zF3hYeyJHzAD7-16" value="" style="endArrow=none;dashed=1;html=1;fillColor=#f8cecc;strokeColor=#b85450;entryX=1;entryY=0.5;entryDx=0;entryDy=0;endFill=0;exitX=0.5;exitY=0;exitDx=0;exitDy=0;exitPerimeter=0;" edge="1" parent="VTCUIz3zF3hYeyJHzAD7-50" source="9hBKPDzoitwpIBdzFDQ7-16" target="VTCUIz3zF3hYeyJHzAD7-14">
          <mxGeometry width="50" height="50" relative="1" as="geometry">
            <mxPoint x="137.25" y="96" as="sourcePoint" />
            <mxPoint x="220" y="77" as="targetPoint" />
            <Array as="points">
              <mxPoint x="317.75" y="64" />
              <mxPoint x="279.75" y="64" />
              <mxPoint x="280" y="10" />
            </Array>
          </mxGeometry>
        </mxCell>
        <mxCell id="9hBKPDzoitwpIBdzFDQ7-61" value="Tag: 1.0.1" style="text;html=1;strokeColor=#005700;fillColor=#008a00;align=center;verticalAlign=middle;whiteSpace=wrap;overflow=hidden;fontSize=14;fontColor=#ffffff;" parent="VTCUIz3zF3hYeyJHzAD7-50" vertex="1">
          <mxGeometry x="232.25" y="-20" width="70" height="20" as="geometry" />
        </mxCell>
        <mxCell id="VTCUIz3zF3hYeyJHzAD7-51" value="" style="endArrow=none;dashed=1;html=1;fillColor=#d5e8d4;strokeColor=#82b366;entryX=0.5;entryY=1;entryDx=0;entryDy=0;endFill=0;exitX=0;exitY=0.5;exitDx=0;exitDy=0;exitPerimeter=0;entryPerimeter=0;" edge="1" parent="1" source="uWUnNED6HEl2aK5fdaIb-82" target="uWUnNED6HEl2aK5fdaIb-10">
          <mxGeometry width="50" height="50" relative="1" as="geometry">
            <mxPoint x="767.2600000000002" y="345.5" as="sourcePoint" />
            <mxPoint x="280" y="256.5" as="targetPoint" />
            <Array as="points">
              <mxPoint x="300" y="455" />
            </Array>
          </mxGeometry>
        </mxCell>
        <mxCell id="VTCUIz3zF3hYeyJHzAD7-54" value="&lt;font&gt;迭代组一&lt;/font&gt;" style="text;html=1;strokeColor=#001DBC;fillColor=#0050ef;align=center;verticalAlign=middle;whiteSpace=wrap;rounded=0;shadow=1;fontSize=18;fontColor=#ffffff;fontStyle=1" vertex="1" parent="1">
          <mxGeometry x="-160" y="251" width="80" height="19" as="geometry" />
        </mxCell>
        <mxCell id="VTCUIz3zF3hYeyJHzAD7-58" value="&lt;font&gt;迭代组三&lt;/font&gt;" style="text;html=1;strokeColor=#001DBC;fillColor=#0050ef;align=center;verticalAlign=middle;whiteSpace=wrap;rounded=0;shadow=1;fontSize=18;fontColor=#FFFFFF;fontStyle=1" vertex="1" parent="1">
          <mxGeometry x="-157.75" y="-110" width="80" height="19" as="geometry" />
        </mxCell>
        <mxCell id="VTCUIz3zF3hYeyJHzAD7-60" value="&lt;font&gt;迭代组二&lt;/font&gt;" style="text;html=1;strokeColor=#001DBC;fillColor=#0050ef;align=center;verticalAlign=middle;whiteSpace=wrap;rounded=0;shadow=1;fontSize=18;fontColor=#FFFFFF;fontStyle=1" vertex="1" parent="1">
          <mxGeometry x="-157.75" y="50" width="80" height="19" as="geometry" />
        </mxCell>
        <mxCell id="VTCUIz3zF3hYeyJHzAD7-62" value="" style="group" vertex="1" connectable="0" parent="1">
          <mxGeometry x="-81" y="-70" width="253.25" height="40" as="geometry" />
        </mxCell>
        <mxCell id="VTCUIz3zF3hYeyJHzAD7-63" value="group1-sprint1-release" style="text;html=1;strokeColor=none;fillColor=none;align=left;verticalAlign=middle;whiteSpace=wrap;overflow=hidden;fontSize=14;fontStyle=1;fontFamily=Courier New;" vertex="1" parent="VTCUIz3zF3hYeyJHzAD7-62">
          <mxGeometry y="-10" width="200" height="20" as="geometry" />
        </mxCell>
        <mxCell id="VTCUIz3zF3hYeyJHzAD7-64" value="与迭代组一致，缩减一下" style="text;html=1;strokeColor=#82b366;fillColor=#d5e8d4;align=left;verticalAlign=middle;whiteSpace=wrap;overflow=hidden;fontSize=14;fontStyle=0;" vertex="1" parent="VTCUIz3zF3hYeyJHzAD7-62">
          <mxGeometry y="10" width="160" height="20" as="geometry" />
        </mxCell>
        <mxCell id="VTCUIz3zF3hYeyJHzAD7-65" value="" style="endArrow=classic;html=1;strokeWidth=4;fontFamily=Courier New;fontColor=#009900;fillColor=#d5e8d4;strokeColor=#82b366;" edge="1" parent="VTCUIz3zF3hYeyJHzAD7-62">
          <mxGeometry width="50" height="50" relative="1" as="geometry">
            <mxPoint x="200" as="sourcePoint" />
            <mxPoint x="253.25" as="targetPoint" />
          </mxGeometry>
        </mxCell>
        <mxCell id="VTCUIz3zF3hYeyJHzAD7-46" value="group1-sprint1-HotFix" style="text;html=1;strokeColor=none;fillColor=none;align=left;verticalAlign=middle;whiteSpace=wrap;overflow=hidden;fontSize=14;fontStyle=1;fontFamily=Courier New;" vertex="1" parent="1">
          <mxGeometry x="-80" y="80" width="200" height="20" as="geometry" />
        </mxCell>
        <mxCell id="VTCUIz3zF3hYeyJHzAD7-48" value="" style="endArrow=classic;html=1;strokeWidth=4;fontFamily=Courier New;fontColor=#009900;fillColor=#f8cecc;strokeColor=#b85450;" edge="1" parent="1">
          <mxGeometry width="50" height="50" relative="1" as="geometry">
            <mxPoint x="120" y="109.5" as="sourcePoint" />
            <mxPoint x="173.25" y="109.5" as="targetPoint" />
          </mxGeometry>
        </mxCell>
        <mxCell id="VTCUIz3zF3hYeyJHzAD7-47" value="预发布" style="text;html=1;strokeColor=#b85450;fillColor=#f8cecc;align=left;verticalAlign=middle;whiteSpace=wrap;overflow=hidden;fontSize=14;fontStyle=0;" vertex="1" parent="1">
          <mxGeometry x="-80" y="100" width="117.75" height="20" as="geometry" />
        </mxCell>
        <mxCell id="VTCUIz3zF3hYeyJHzAD7-68" value="" style="verticalLabelPosition=bottom;verticalAlign=top;html=1;strokeWidth=4;shape=mxgraph.flowchart.on-page_reference;strokeColor=#82b366;fillColor=#d5e8d4;" vertex="1" parent="1">
          <mxGeometry x="580" y="440" width="30" height="30" as="geometry" />
        </mxCell>
        <mxCell id="VTCUIz3zF3hYeyJHzAD7-69" value="" style="edgeStyle=orthogonalEdgeStyle;rounded=0;orthogonalLoop=1;jettySize=auto;html=1;endArrow=none;endFill=0;strokeWidth=1;entryX=0;entryY=0.5;entryDx=0;entryDy=0;entryPerimeter=0;exitX=1;exitY=0.5;exitDx=0;exitDy=0;exitPerimeter=0;fillColor=#d5e8d4;strokeColor=#82b366;" edge="1" parent="1" source="uWUnNED6HEl2aK5fdaIb-84" target="VTCUIz3zF3hYeyJHzAD7-68">
          <mxGeometry relative="1" as="geometry">
            <mxPoint x="360" y="465" as="sourcePoint" />
            <mxPoint x="420" y="465" as="targetPoint" />
            <Array as="points">
              <mxPoint x="510" y="455" />
              <mxPoint x="510" y="455" />
            </Array>
          </mxGeometry>
        </mxCell>
        <mxCell id="VTCUIz3zF3hYeyJHzAD7-71" value="" style="verticalLabelPosition=bottom;verticalAlign=top;html=1;strokeWidth=4;shape=mxgraph.flowchart.on-page_reference;strokeColor=#82b366;fillColor=#d5e8d4;" vertex="1" parent="1">
          <mxGeometry x="520" y="530" width="30" height="30" as="geometry" />
        </mxCell>
        <mxCell id="VTCUIz3zF3hYeyJHzAD7-73" value="" style="endArrow=none;html=1;rounded=0;entryX=0;entryY=0.5;entryDx=0;entryDy=0;entryPerimeter=0;exitX=1;exitY=0.5;exitDx=0;exitDy=0;exitPerimeter=0;fillColor=#d5e8d4;strokeColor=#82b366;" edge="1" parent="1" source="VTCUIz3zF3hYeyJHzAD7-7" target="VTCUIz3zF3hYeyJHzAD7-71">
          <mxGeometry width="50" height="50" relative="1" as="geometry">
            <mxPoint x="420" y="555" as="sourcePoint" />
            <mxPoint x="450" y="555" as="targetPoint" />
            <Array as="points">
              <mxPoint x="500" y="545" />
            </Array>
          </mxGeometry>
        </mxCell>
        <mxCell id="VTCUIz3zF3hYeyJHzAD7-52" value="" style="endArrow=none;dashed=1;html=1;fillColor=#d5e8d4;strokeColor=none;entryX=0.5;entryY=1;entryDx=0;entryDy=0;endFill=0;exitX=0;exitY=0.5;exitDx=0;exitDy=0;exitPerimeter=0;entryPerimeter=0;" edge="1" parent="1" source="VTCUIz3zF3hYeyJHzAD7-8" target="uWUnNED6HEl2aK5fdaIb-10">
          <mxGeometry width="50" height="50" relative="1" as="geometry">
            <mxPoint x="280.5" y="497.5" as="sourcePoint" />
            <mxPoint x="260" y="254.5" as="targetPoint" />
            <Array as="points">
              <mxPoint x="300" y="545" />
            </Array>
          </mxGeometry>
        </mxCell>
        <mxCell id="VTCUIz3zF3hYeyJHzAD7-74" value="" style="endArrow=classic;html=1;dashed=1;fontSize=18;fontColor=#000000;strokeColor=#82b366;strokeWidth=1;rounded=1;fillColor=#d5e8d4;entryX=0;entryY=0.5;entryDx=0;entryDy=0;entryPerimeter=0;" edge="1" parent="1" target="VTCUIz3zF3hYeyJHzAD7-8">
          <mxGeometry width="50" height="50" relative="1" as="geometry">
            <mxPoint x="300" y="210" as="sourcePoint" />
            <mxPoint x="380" y="550" as="targetPoint" />
            <Array as="points">
              <mxPoint x="300" y="545" />
            </Array>
          </mxGeometry>
        </mxCell>
        <mxCell id="VTCUIz3zF3hYeyJHzAD7-75" value="" style="endArrow=classic;html=1;rounded=1;dashed=1;fontSize=18;fontColor=#000000;strokeColor=#82b366;strokeWidth=1;exitX=0.5;exitY=0;exitDx=0;exitDy=0;entryX=0.5;entryY=0;entryDx=0;entryDy=0;entryPerimeter=0;fillColor=#d5e8d4;" edge="1" parent="1" target="uWUnNED6HEl2aK5fdaIb-84">
          <mxGeometry width="50" height="50" relative="1" as="geometry">
            <mxPoint x="489.5" y="212" as="sourcePoint" />
            <mxPoint x="560" y="360" as="targetPoint" />
            <Array as="points">
              <mxPoint x="490" y="420" />
              <mxPoint x="425" y="420" />
            </Array>
          </mxGeometry>
        </mxCell>
        <mxCell id="VTCUIz3zF3hYeyJHzAD7-78" value="" style="endArrow=classic;html=1;rounded=1;dashed=1;fontSize=18;fontColor=#000000;strokeColor=#82b366;strokeWidth=1;exitX=0.5;exitY=1;exitDx=0;exitDy=0;entryX=0.5;entryY=0;entryDx=0;entryDy=0;entryPerimeter=0;fillColor=#d5e8d4;exitPerimeter=0;" edge="1" parent="1" source="9hBKPDzoitwpIBdzFDQ7-16" target="VTCUIz3zF3hYeyJHzAD7-7">
          <mxGeometry width="50" height="50" relative="1" as="geometry">
            <mxPoint x="499.5" y="222" as="sourcePoint" />
            <mxPoint x="435" y="450" as="targetPoint" />
            <Array as="points">
              <mxPoint x="490" y="510" />
              <mxPoint x="455" y="510" />
            </Array>
          </mxGeometry>
        </mxCell>
        <mxCell id="VTCUIz3zF3hYeyJHzAD7-79" value="" style="endArrow=classic;html=1;rounded=1;dashed=1;fontSize=18;fontColor=#000000;strokeColor=#82b366;strokeWidth=1;exitX=0.5;exitY=1;exitDx=0;exitDy=0;entryX=0.5;entryY=0;entryDx=0;entryDy=0;entryPerimeter=0;fillColor=#d5e8d4;exitPerimeter=0;" edge="1" parent="1" source="uWUnNED6HEl2aK5fdaIb-11" target="VTCUIz3zF3hYeyJHzAD7-68">
          <mxGeometry width="50" height="50" relative="1" as="geometry">
            <mxPoint x="664.5" y="222" as="sourcePoint" />
            <mxPoint x="630" y="540" as="targetPoint" />
            <Array as="points">
              <mxPoint x="660" y="420" />
              <mxPoint x="595" y="420" />
            </Array>
          </mxGeometry>
        </mxCell>
        <mxCell id="VTCUIz3zF3hYeyJHzAD7-80" value="" style="endArrow=classic;html=1;rounded=1;dashed=1;fontSize=18;fontColor=#000000;strokeColor=#82b366;strokeWidth=1;exitX=0.5;exitY=1;exitDx=0;exitDy=0;entryX=0.5;entryY=0;entryDx=0;entryDy=0;entryPerimeter=0;fillColor=#d5e8d4;exitPerimeter=0;" edge="1" parent="1" source="uWUnNED6HEl2aK5fdaIb-11" target="VTCUIz3zF3hYeyJHzAD7-71">
          <mxGeometry width="50" height="50" relative="1" as="geometry">
            <mxPoint x="696.25" y="311" as="sourcePoint" />
            <mxPoint x="631.75" y="539" as="targetPoint" />
            <Array as="points">
              <mxPoint x="660" y="510" />
              <mxPoint x="535" y="510" />
            </Array>
          </mxGeometry>
        </mxCell>
        <mxCell id="VTCUIz3zF3hYeyJHzAD7-81" value="" style="verticalLabelPosition=bottom;verticalAlign=top;html=1;strokeWidth=4;shape=mxgraph.flowchart.on-page_reference;strokeColor=#82b366;fillColor=#d5e8d4;" vertex="1" parent="1">
          <mxGeometry x="284.5" y="-75" width="30" height="30" as="geometry" />
        </mxCell>
        <mxCell id="VTCUIz3zF3hYeyJHzAD7-82" value="" style="verticalLabelPosition=bottom;verticalAlign=top;html=1;strokeWidth=4;shape=mxgraph.flowchart.on-page_reference;strokeColor=#82b366;fillColor=#d5e8d4;" vertex="1" parent="1">
          <mxGeometry x="380" y="-75" width="30" height="30" as="geometry" />
        </mxCell>
        <mxCell id="VTCUIz3zF3hYeyJHzAD7-84" value="" style="endArrow=none;html=1;rounded=1;fontSize=18;fontColor=#000000;strokeColor=#82b366;strokeWidth=1;entryX=0;entryY=0.5;entryDx=0;entryDy=0;entryPerimeter=0;exitX=1;exitY=0.5;exitDx=0;exitDy=0;exitPerimeter=0;fillColor=#d5e8d4;" edge="1" parent="1" source="VTCUIz3zF3hYeyJHzAD7-81" target="VTCUIz3zF3hYeyJHzAD7-82">
          <mxGeometry width="50" height="50" relative="1" as="geometry">
            <mxPoint x="320" y="-60" as="sourcePoint" />
            <mxPoint x="360" y="-110" as="targetPoint" />
          </mxGeometry>
        </mxCell>
        <mxCell id="VTCUIz3zF3hYeyJHzAD7-85" value="" style="endArrow=classic;html=1;rounded=1;fontSize=18;fontColor=#000000;strokeColor=#82b366;strokeWidth=1;exitX=0.5;exitY=0;exitDx=0;exitDy=0;exitPerimeter=0;entryX=0.5;entryY=1;entryDx=0;entryDy=0;entryPerimeter=0;fillColor=#d5e8d4;dashed=1;" edge="1" parent="1" source="uWUnNED6HEl2aK5fdaIb-10" target="VTCUIz3zF3hYeyJHzAD7-81">
          <mxGeometry width="50" height="50" relative="1" as="geometry">
            <mxPoint x="270" y="100" as="sourcePoint" />
            <mxPoint x="320" y="50" as="targetPoint" />
          </mxGeometry>
        </mxCell>
        <mxCell id="VTCUIz3zF3hYeyJHzAD7-87" value="" style="endArrow=classic;html=1;rounded=1;dashed=1;fontSize=18;fontColor=#000000;strokeColor=#82b366;strokeWidth=1;exitX=0.5;exitY=0;exitDx=0;exitDy=0;exitPerimeter=0;entryX=0.5;entryY=1;entryDx=0;entryDy=0;entryPerimeter=0;fillColor=#d5e8d4;" edge="1" parent="1" source="9hBKPDzoitwpIBdzFDQ7-16" target="VTCUIz3zF3hYeyJHzAD7-82">
          <mxGeometry width="50" height="50" relative="1" as="geometry">
            <mxPoint x="590" y="-20" as="sourcePoint" />
            <mxPoint x="640" y="-70" as="targetPoint" />
            <Array as="points">
              <mxPoint x="490" y="-20" />
              <mxPoint x="395" y="-20" />
            </Array>
          </mxGeometry>
        </mxCell>
        <mxCell id="VTCUIz3zF3hYeyJHzAD7-88" value="" style="endArrow=classic;html=1;rounded=1;dashed=1;fontSize=18;fontColor=#000000;strokeColor=#82b366;strokeWidth=1;entryX=0.5;entryY=0;entryDx=0;entryDy=0;entryPerimeter=0;fillColor=#d5e8d4;exitX=1;exitY=0.5;exitDx=0;exitDy=0;exitPerimeter=0;" edge="1" parent="1" source="VTCUIz3zF3hYeyJHzAD7-92" target="uWUnNED6HEl2aK5fdaIb-11">
          <mxGeometry width="50" height="50" relative="1" as="geometry">
            <mxPoint x="510" y="-30" as="sourcePoint" />
            <mxPoint x="560" y="-80" as="targetPoint" />
            <Array as="points">
              <mxPoint x="660" y="-60" />
            </Array>
          </mxGeometry>
        </mxCell>
        <mxCell id="uWUnNED6HEl2aK5fdaIb-116" value="Tag: 1.0.3" style="text;html=1;strokeColor=#005700;fillColor=#008a00;align=center;verticalAlign=middle;whiteSpace=wrap;overflow=hidden;fontSize=14;fontColor=#ffffff;" parent="1" vertex="1">
          <mxGeometry x="930" y="310" width="64.5" height="20" as="geometry" />
        </mxCell>
        <mxCell id="uWUnNED6HEl2aK5fdaIb-101" value="Tag: 1.0.2" style="text;html=1;strokeColor=#005700;fillColor=#008a00;align=center;verticalAlign=middle;whiteSpace=wrap;overflow=hidden;fontSize=14;fontColor=#ffffff;" parent="1" vertex="1">
          <mxGeometry x="600" y="-89" width="66.75" height="19" as="geometry" />
        </mxCell>
        <mxCell id="VTCUIz3zF3hYeyJHzAD7-92" value="" style="verticalLabelPosition=bottom;verticalAlign=top;html=1;strokeWidth=4;shape=mxgraph.flowchart.on-page_reference;strokeColor=#82b366;fillColor=#d5e8d4;" vertex="1" parent="1">
          <mxGeometry x="560" y="-75" width="30" height="30" as="geometry" />
        </mxCell>
        <mxCell id="VTCUIz3zF3hYeyJHzAD7-93" value="" style="endArrow=none;html=1;rounded=1;fontSize=18;fontColor=#000000;strokeColor=#82b366;strokeWidth=1;entryX=0;entryY=0.5;entryDx=0;entryDy=0;entryPerimeter=0;exitX=1;exitY=0.5;exitDx=0;exitDy=0;exitPerimeter=0;fillColor=#d5e8d4;" edge="1" parent="1" target="VTCUIz3zF3hYeyJHzAD7-92">
          <mxGeometry width="50" height="50" relative="1" as="geometry">
            <mxPoint x="410" y="-60.5" as="sourcePoint" />
            <mxPoint x="475.5" y="-60.5" as="targetPoint" />
          </mxGeometry>
        </mxCell>
        <mxCell id="VTCUIz3zF3hYeyJHzAD7-95" value="" style="verticalLabelPosition=bottom;verticalAlign=top;html=1;strokeWidth=4;shape=mxgraph.flowchart.on-page_reference;strokeColor=#82b366;fillColor=#d5e8d4;" vertex="1" parent="1">
          <mxGeometry x="780" y="440" width="30" height="30" as="geometry" />
        </mxCell>
        <mxCell id="uWUnNED6HEl2aK5fdaIb-109" value="" style="verticalLabelPosition=bottom;verticalAlign=top;html=1;strokeWidth=4;shape=mxgraph.flowchart.on-page_reference;plain-blue;gradientColor=none;strokeColor=#33001A;fillColor=#B5E3FE;" parent="1" vertex="1">
          <mxGeometry x="980" y="186" width="30" height="30" as="geometry" />
        </mxCell>
        <mxCell id="uWUnNED6HEl2aK5fdaIb-80" value="" style="edgeStyle=orthogonalEdgeStyle;curved=1;rounded=0;orthogonalLoop=1;jettySize=auto;html=1;endArrow=none;endFill=0;strokeWidth=4;entryX=0;entryY=0.5;entryDx=0;entryDy=0;entryPerimeter=0;" parent="1" source="uWUnNED6HEl2aK5fdaIb-11" target="uWUnNED6HEl2aK5fdaIb-109" edge="1">
          <mxGeometry relative="1" as="geometry">
            <mxPoint x="756.7499999999995" y="201" as="targetPoint" />
          </mxGeometry>
        </mxCell>
        <mxCell id="VTCUIz3zF3hYeyJHzAD7-98" value="" style="endArrow=classic;html=1;rounded=1;fontSize=18;fontColor=#000000;strokeColor=#d6b656;strokeWidth=1;dashed=1;exitX=1;exitY=0.5;exitDx=0;exitDy=0;exitPerimeter=0;entryX=0.5;entryY=1;entryDx=0;entryDy=0;entryPerimeter=0;fillColor=#fff2cc;" edge="1" parent="1" source="VTCUIz3zF3hYeyJHzAD7-68" target="uWUnNED6HEl2aK5fdaIb-95">
          <mxGeometry width="50" height="50" relative="1" as="geometry">
            <mxPoint x="630" y="500" as="sourcePoint" />
            <mxPoint x="680" y="450" as="targetPoint" />
            <Array as="points">
              <mxPoint x="630" y="455" />
              <mxPoint x="630" y="430" />
              <mxPoint x="735" y="430" />
            </Array>
          </mxGeometry>
        </mxCell>
        <mxCell id="VTCUIz3zF3hYeyJHzAD7-99" value="" style="endArrow=none;html=1;rounded=1;fontSize=18;fontColor=#000000;strokeColor=#82b366;strokeWidth=1;exitX=1;exitY=0.5;exitDx=0;exitDy=0;exitPerimeter=0;entryX=0;entryY=0.5;entryDx=0;entryDy=0;entryPerimeter=0;fillColor=#d5e8d4;" edge="1" parent="1" source="VTCUIz3zF3hYeyJHzAD7-68" target="VTCUIz3zF3hYeyJHzAD7-95">
          <mxGeometry width="50" height="50" relative="1" as="geometry">
            <mxPoint x="720" y="560" as="sourcePoint" />
            <mxPoint x="770" y="510" as="targetPoint" />
          </mxGeometry>
        </mxCell>
        <mxCell id="VTCUIz3zF3hYeyJHzAD7-100" value="" style="endArrow=none;html=1;rounded=1;fontSize=18;fontColor=#000000;strokeColor=#d6b656;strokeWidth=1;entryX=0.5;entryY=1;entryDx=0;entryDy=0;entryPerimeter=0;exitX=0;exitY=0.5;exitDx=0;exitDy=0;exitPerimeter=0;fillColor=#fff2cc;dashed=1;" edge="1" parent="1" source="uWUnNED6HEl2aK5fdaIb-95" target="uWUnNED6HEl2aK5fdaIb-10">
          <mxGeometry width="50" height="50" relative="1" as="geometry">
            <mxPoint x="560" y="370" as="sourcePoint" />
            <mxPoint x="610" y="320" as="targetPoint" />
            <Array as="points">
              <mxPoint x="300" y="376" />
            </Array>
          </mxGeometry>
        </mxCell>
        <mxCell id="VTCUIz3zF3hYeyJHzAD7-101" value="" style="endArrow=classic;html=1;rounded=1;dashed=1;fontSize=18;fontColor=#000000;strokeColor=#d6b656;strokeWidth=1;exitX=1;exitY=0.5;exitDx=0;exitDy=0;exitPerimeter=0;entryX=0.5;entryY=1;entryDx=0;entryDy=0;entryPerimeter=0;fillColor=#fff2cc;" edge="1" parent="1" source="VTCUIz3zF3hYeyJHzAD7-71" target="uWUnNED6HEl2aK5fdaIb-95">
          <mxGeometry width="50" height="50" relative="1" as="geometry">
            <mxPoint x="610" y="580" as="sourcePoint" />
            <mxPoint x="660" y="530" as="targetPoint" />
            <Array as="points">
              <mxPoint x="570" y="545" />
              <mxPoint x="570" y="520" />
              <mxPoint x="735" y="520" />
            </Array>
          </mxGeometry>
        </mxCell>
        <mxCell id="VTCUIz3zF3hYeyJHzAD7-103" value="" style="endArrow=classic;html=1;rounded=1;dashed=1;fontSize=18;fontColor=#000000;strokeColor=#d6b656;strokeWidth=1;exitX=0;exitY=0.5;exitDx=0;exitDy=0;exitPerimeter=0;entryX=0.5;entryY=1;entryDx=0;entryDy=0;entryPerimeter=0;fillColor=#fff2cc;" edge="1" parent="1" source="VTCUIz3zF3hYeyJHzAD7-95" target="uWUnNED6HEl2aK5fdaIb-95">
          <mxGeometry width="50" height="50" relative="1" as="geometry">
            <mxPoint x="890" y="570" as="sourcePoint" />
            <mxPoint x="940" y="520" as="targetPoint" />
            <Array as="points">
              <mxPoint x="760" y="455" />
              <mxPoint x="760" y="430" />
              <mxPoint x="735" y="430" />
            </Array>
          </mxGeometry>
        </mxCell>
        <mxCell id="VTCUIz3zF3hYeyJHzAD7-104" value="" style="endArrow=classic;html=1;rounded=1;dashed=1;fontSize=18;fontColor=#000000;strokeColor=#005700;strokeWidth=1;exitX=1;exitY=0.5;exitDx=0;exitDy=0;exitPerimeter=0;entryX=0.5;entryY=1;entryDx=0;entryDy=0;entryPerimeter=0;fillColor=#008a00;" edge="1" parent="1" source="VTCUIz3zF3hYeyJHzAD7-95" target="uWUnNED6HEl2aK5fdaIb-106">
          <mxGeometry width="50" height="50" relative="1" as="geometry">
            <mxPoint x="940" y="560" as="sourcePoint" />
            <mxPoint x="990" y="510" as="targetPoint" />
            <Array as="points">
              <mxPoint x="840" y="455" />
              <mxPoint x="840" y="340" />
              <mxPoint x="915" y="340" />
            </Array>
          </mxGeometry>
        </mxCell>
        <mxCell id="VTCUIz3zF3hYeyJHzAD7-106" value="" style="endArrow=classic;html=1;rounded=1;dashed=1;fontSize=18;fontColor=#000000;strokeColor=#005700;strokeWidth=1;exitX=1;exitY=0.5;exitDx=0;exitDy=0;exitPerimeter=0;entryX=0.5;entryY=1;entryDx=0;entryDy=0;entryPerimeter=0;fillColor=#008a00;" edge="1" parent="1" source="VTCUIz3zF3hYeyJHzAD7-71" target="uWUnNED6HEl2aK5fdaIb-106">
          <mxGeometry width="50" height="50" relative="1" as="geometry">
            <mxPoint x="820" y="465" as="sourcePoint" />
            <mxPoint x="925" y="330" as="targetPoint" />
            <Array as="points">
              <mxPoint x="590" y="545" />
              <mxPoint x="590" y="530" />
              <mxPoint x="850" y="530" />
              <mxPoint x="850" y="350" />
              <mxPoint x="915" y="350" />
            </Array>
          </mxGeometry>
        </mxCell>
        <mxCell id="VTCUIz3zF3hYeyJHzAD7-107" value="" style="endArrow=classic;html=1;rounded=1;dashed=1;fontSize=18;fontColor=#000000;strokeColor=#005700;strokeWidth=1;exitX=1;exitY=0.5;exitDx=0;exitDy=0;exitPerimeter=0;entryX=0.5;entryY=1;entryDx=0;entryDy=0;entryPerimeter=0;fillColor=#008a00;" edge="1" parent="1" source="uWUnNED6HEl2aK5fdaIb-106" target="uWUnNED6HEl2aK5fdaIb-109">
          <mxGeometry width="50" height="50" relative="1" as="geometry">
            <mxPoint x="1000" y="400" as="sourcePoint" />
            <mxPoint x="1050" y="350" as="targetPoint" />
            <Array as="points">
              <mxPoint x="960" y="305" />
              <mxPoint x="960" y="260" />
              <mxPoint x="995" y="260" />
            </Array>
          </mxGeometry>
        </mxCell>
      </root>
    </mxGraphModel>
  </diagram>
</mxfile>
